# xmcd
#
# Track frame offsets: 
#        150
#        17131
#        36043
#        62243
#        79609
#        106058
#        126020
#        146935
#        173132
#        199108
#        220437
#        242511
#        268506
#        291995
#
# Disc length: 4407 seconds
#
# Revision: 2
# Processed by: cddbd v1.5.2PL0 Copyright (c) Steve Scherf et al.
# Submitted via: ExactAudioCopyFreeDBPlugin 1.0
#
DISCID=cd11350e
DTITLE=Passion - A Generation United For His Renown
DYEAR=2008
DGENRE=Christian
TTITLE0=David Crowder*Band - Here Is Our King
TTITLE1=Chris Tomlin - Holy Is The Lord
TTITLE2=Charlie Hall - Center
TTITLE3=David Crowder*Band - No One Like You
TTITLE4=Charlie Hall - Marvelous Light
TTITLE5=Chris Tomlin - How Great Is Our God
TTITLE6=David Crowder*Band - Everything Glorious
TTITLE7=Matt Redman - Blessed Be Your Name
TTITLE8=Christy Nockels - Hosanna
TTITLE9=Chris Tomlin - We Fall Down
TTITLE10=Matt Redman - You Never Let Go
TTITLE11=David Crowder*Band - O Praise Him
TTITLE12=Matt Redman - God Of Our Yesterdays
TTITLE13=Chris Tomlin - Amazing Grace (My Chains Are Gone)
EXTD=
EXTT0=
EXTT1=
EXTT2=
EXTT3=
EXTT4=
EXTT5=
EXTT6=
EXTT7=
EXTT8=
EXTT9=
EXTT10=
EXTT11=
EXTT12=
EXTT13=
PLAYORDER=
